<svg width="12" height="12" viewBox="0 0 12 12" fill="none" xmlns="http://www.w3.org/2000/svg">
<path d="M5.99998 12C9.27644 12 12 9.28234 12 6C12 2.72353 9.27057 0 5.9941 0C2.71174 0 0 2.72353 0 6C0 9.28234 2.71764 12 5.99998 12ZM4.40585 9.01763C4.15291 9.01763 3.96468 8.80001 4.01761 8.55294L4.26468 7.32939H3.71174C3.50586 7.32939 3.35881 7.17647 3.35881 6.97059C3.35881 6.72942 3.53528 6.55293 3.77057 6.55293H4.42939L4.6941 5.29999H4.15291C3.94703 5.29999 3.79411 5.14707 3.79411 4.93529C3.79411 4.7 3.97645 4.51764 4.20585 4.51764H4.85879L5.1294 3.25295C5.17056 3.01766 5.32351 2.9 5.57057 2.9C5.82938 2.9 6.00587 3.11765 5.95292 3.36471L5.71762 4.51764H6.86468L7.12938 3.25295C7.17644 3.01766 7.33526 2.9 7.57645 2.9C7.82939 2.9 8.01173 3.11177 7.96467 3.36471L7.72938 4.51764H8.27644C8.47644 4.51764 8.62349 4.67058 8.62349 4.88236C8.62349 5.12353 8.4529 5.29999 8.21173 5.29999H7.56468L7.2941 6.55293H7.83527C8.04114 6.55293 8.18822 6.70588 8.18822 6.91176C8.18822 7.15293 8.01173 7.32939 7.77644 7.32939H7.13528L6.8529 8.65881C6.80587 8.8941 6.64703 9.01763 6.39409 9.01763C6.14702 9.01763 5.97056 8.80001 6.01762 8.55294L6.27056 7.33529H5.1235L4.84115 8.65881C4.79999 8.8941 4.64704 9.01763 4.40585 9.01763ZM5.23526 6.62353H6.47644L6.76469 5.24119H5.52349L5.23526 6.62353Z" fill="#316CF4"/>
</svg>
