<svg width="12" height="12" viewBox="0 0 12 12" fill="none" xmlns="http://www.w3.org/2000/svg">
<path d="M3.19683 8.80159C-0.764378 4.83932 -0.574834 1.8428 1.23736 0.483827L1.63885 0.184752C1.74129 0.109372 1.85783 0.0553395 1.98155 0.0258601C2.10527 -0.00361924 2.23364 -0.00794474 2.35906 0.0131402C2.48449 0.0342251 2.60439 0.0802908 2.71167 0.148604C2.81895 0.216917 2.91142 0.306086 2.98359 0.41082L3.9947 1.86585C4.13 2.06058 4.1885 2.29848 4.15895 2.53376C4.12939 2.76904 4.01387 2.98508 3.83461 3.14029L2.86128 3.9818C2.61795 4.19249 2.49884 4.51206 2.60834 4.81498C2.81069 5.37855 3.30184 6.37312 4.46344 7.5342C5.62503 8.69592 6.61885 9.18712 7.18236 9.39014C7.48589 9.49901 7.80542 9.38053 8.0161 9.13653L8.85752 8.16437C9.01271 7.9851 9.22872 7.86956 9.46398 7.84C9.69923 7.81044 9.9371 7.86895 10.1318 8.00427L11.5892 9.01613C11.6939 9.08807 11.783 9.18031 11.8513 9.28736C11.9195 9.39441 11.9656 9.51408 11.9868 9.63929C12.0079 9.76449 12.0037 9.89267 11.9743 10.0162C11.945 10.1397 11.8911 10.2561 11.8159 10.3584L11.515 10.7638C10.1568 12.5749 7.15931 12.7639 3.19683 8.80159Z" fill="#316CF4"/>
</svg>
