<svg width="10" height="12" viewBox="0 0 10 12" fill="none" xmlns="http://www.w3.org/2000/svg">
<path d="M4.71429 0C5.96459 0 7.16369 0.520324 8.04779 1.44651C8.93189 2.37269 9.42857 3.62886 9.42857 4.93868C9.42857 7.02559 8.02879 9.29991 5.26549 11.786C5.11184 11.9242 4.91594 12.0002 4.71338 12C4.51082 11.9998 4.31505 11.9235 4.16163 11.785L3.97886 11.6188C1.33789 9.19759 0 6.97899 0 4.93868C0 3.62886 0.496682 2.37269 1.38078 1.44651C2.26488 0.520324 3.46398 0 4.71429 0ZM4.71429 3.03919C4.2334 3.03919 3.77221 3.23931 3.43217 3.59554C3.09213 3.95176 2.9011 4.4349 2.9011 4.93868C2.9011 5.44245 3.09213 5.9256 3.43217 6.28182C3.77221 6.63805 4.2334 6.83817 4.71429 6.83817C5.19517 6.83817 5.65636 6.63805 5.9964 6.28182C6.33644 5.9256 6.52747 5.44245 6.52747 4.93868C6.52747 4.4349 6.33644 3.95176 5.9964 3.59554C5.65636 3.23931 5.19517 3.03919 4.71429 3.03919Z" fill="#316CF4"/>
</svg>
