<svg width="14" height="14" viewBox="0 0 14 14" fill="none" xmlns="http://www.w3.org/2000/svg">
<path d="M7 0C3.13396 0 0 3.13396 0 7C0 10.866 3.13396 14 7 14C10.866 14 14 10.866 14 7C14 3.13396 10.866 0 7 0ZM7.60444 10.7952V11.7811H6.66141V10.8063C5.11394 10.5944 4.43629 9.3229 4.43629 9.3229L5.39955 8.51713C5.39955 8.51713 6.01459 9.58779 7.12715 9.58779C7.74171 9.58779 8.20793 9.25884 8.20793 8.69678C8.20793 7.3829 4.66795 7.54231 4.66795 5.10479C4.66795 4.0452 5.50599 3.28182 6.66093 3.10121V2.11628H7.60396V3.10121C8.40925 3.20717 9.36287 3.631 9.36287 4.54273V5.24205H8.11256V4.90299C8.11256 4.55332 7.66706 4.32021 7.16857 4.32021C6.53282 4.32021 6.06708 4.63809 6.06708 5.08312C6.06708 6.42879 9.60706 6.10032 9.60706 8.6544C9.60706 9.70435 8.82297 10.6146 7.60444 10.7952Z" fill="#316CF4"/>
</svg>
