<svg xmlns="http://www.w3.org/2000/svg" xmlns:xlink="http://www.w3.org/1999/xlink" version="1.2" viewBox="0 0 352.42 352.42" baseProfile="tiny-ps">  <title>Infinity Logo</title>  <g>    <path d="M200.747,123.892c2.735-1.341,5.291-2.569,7.607-3.647c0.334,2.813,0.643,5.622,0.931,8.434   C206.432,127.051,203.582,125.439,200.747,123.892 M251.269,155.845c-6.103-4.531-12.168-8.666-18.215-12.631   c-0.803-12.816-1.791-26.056-2.732-31.328c-0.034-0.197-0.068-0.397-0.103-0.594c19.303-7.053,43.632-14.078,58.385-13.872   c20.234,0.288,26.647,7.125,24.793,17.388c-1.853,10.259-14.818,28.925-32.062,43.743c1.284,11.4,0.712,14.394,0.712,14.394   s23.229-18.666,38.76-42.606c15.534-23.941,14.534-36.906,3.706-48.022c-10.831-11.116-46.509-9.775-83.075,1.853   c-4.912,1.463-9.834,3.097-14.731,4.831c-0.013-0.081-0.019-0.128-0.019-0.128s-6.375-32.062-15.994-54.506   c-9.618-22.444-21.837-35.625-37.656-34.272c-14.178,1.356-23.653,17.884-30.566,32.063c-6.909,14.178-14.178,40.362-15.675,50.515   l12.185-5.556c0,0,5.2-24.153,12.965-37.906c7.769-13.75,16.247-16.885,20.663-15.532c4.419,1.354,12.647,5.772,21.412,27.894   c4.085,10.316,7.997,27.05,11.094,45.8c-10.537,4.425-20.553,9.075-29.459,13.456c-6.403-3.206-12.753-6.337-19.006-9.418   c-30.066-14.819-71.747-24.722-94.51-26.219c-22.765-1.497-38.262,5.022-41.359,18.703c-3.1,13.678,6.944,31.528,15.709,43.497   c8.763,11.969,24.472,27.681,33.131,35.269c0.213-4.597,1.816-13.36,1.816-13.36s-10.831-8.728-21.375-22.834   c-10.544-14.109-12.681-23.656-10.116-30.922c8.407-13.825,39.757-9.834,71.96,2.278c13.7,5.153,26.969,10.766,38.687,16.063   c-19.5,10.875-45.706,27.478-72.459,49.628c-30.638,25.365-63.981,62.95-57.463,85.819c6.519,22.871,35.163,20.734,58.141,17.74   c22.978-2.99,40.219-10.506,40.219-10.506l-10.119-7.838c0,0-43.603,13.679-57.141,5.413c-13.537-8.263-4.559-25.506,5.56-38.616   c10.115-13.109,36.478-37.903,67.115-58.137c16.694-11.028,35.522-21.975,52.216-31.019c3.972,2.028,7.369,3.834,9.984,5.297   c4.95,2.769,14.038,8.256,24.672,15.119c0.085,2.19,0.153,4.356,0.194,6.468c0.713,38.047-4.666,84.004-8.194,105.807   c-3.528,21.8-16.672,61.45-32.062,61.022c-15.391-0.429-25.15-23.904-32.131-53.969l-12.329-5.7c0,0,2.922,23.653,15.891,52.153   c12.966,28.5,28.356,33.7,40.538,29.853c12.184-3.847,29.496-25.65,40.612-73.744c11.116-48.09,11.116-103.025,10.9-105.803   c-0.003-0.072-0.012-0.194-0.019-0.325c9.941,7.003,19.747,14.366,27.807,21.272c23.94,20.519,39.043,37.406,43.462,48.95   c4.419,11.541,1.425,23.509-17.1,23.509c-24.794,0-45.312-7.978-45.312-7.978s-5.272,5.272-10.975,8.266   c13.112,6.125,49.446,14.534,74.812,11.256c25.366-3.278,29.781-21.09,19.378-43.747   C316.391,211.42,283.901,180.07,251.269,155.845" fill="#231F20"/>    <path d="M244.617,136.562c4.553,3.059,9.137,6.222,13.787,9.672c2.982,2.215,5.95,4.519,8.91,6.837   c-3.391-13.218-9.594-25.3-17.916-35.603c-2.044,0.644-4.1,1.272-6.112,1.947c0.128,1.369,0.256,2.803,0.381,4.309   C243.998,127.693,244.317,132.087,244.617,136.562 M246.242,195.993c-0.569,12.744-1.756,29.525-4.106,47.566   c9.337-9.181,16.75-20.297,21.621-32.7c-2.84-2.575-5.837-5.222-9.021-7.95C252.129,200.671,249.236,198.346,246.242,195.993    M107.692,119.028c-1.538-0.579-3.069-1.113-4.597-1.65c-8.272,10.212-14.45,22.184-17.872,35.278   c13.75-10.513,27.022-19.553,39.056-27.072C118.861,123.356,113.323,121.146,107.692,119.028 M175.72,97.499   c5.062-2.428,10.394-4.9,15.959-7.359c-0.425-2.272-0.868-4.453-1.312-6.619c-4.616-0.697-9.344-1.062-14.156-1.062   c-8.647,0-17.013,1.19-24.966,3.375c3.644,1.553,7.25,3.144,10.697,4.84C166.461,92.899,171.095,95.203,175.72,97.499    M199.545,163.468c-8.144-5.153-14.969-9.247-18.741-11.353c-1.137-0.637-2.481-1.369-3.968-2.159   c-15.025,8.284-31.285,17.834-45.794,27.418c-15.947,10.522-30.797,22.457-42.535,33.091c8.475,21.869,24.879,39.772,45.697,50.184   l5.666,2.622c11.181,4.688,23.456,7.285,36.341,7.285c5.068,0,10.04-0.413,14.893-1.185c0.138-0.75,0.288-1.525,0.397-2.222   c3.225-19.85,8.122-61.4,8.106-96.862c0-2.297-0.021-4.572-0.062-6.806C199.545,163.478,199.545,163.471,199.545,163.468" fill="#F36C36"/>  </g></svg>