<?xml version="1.0" encoding="UTF-8"?>
<svg id="Layer_1" data-name="Layer 1" xmlns="http://www.w3.org/2000/svg" viewBox="0 0 469.9 469.9">
  <defs>
    <style>
      .cls-1 {
        fill: #f36c36;
      }

      .cls-2 {
        fill: #231f20;
      }
    </style>
  </defs>
  <path class="cls-1" d="M247.7,331.89h176.77v66.98H247.7v-66.98h0Zm-33.98,100.96h105.73v37.05h33.48v-37.05h105.41v-134.94H213.72v134.94h0Z"/>
  <path class="cls-2" d="M280.14,262.23c-24.91,5.86-43.74,9.08-59.01,9.86,18.01-23.43,39-50.94,59.86-78.04,33.96-44.12,67.59-87.19,86.91-109.24,8.76-10,16.92-19.18,24.39-27.5,13.67,4.43,24.39,10.56,32.31,17.89,6.88,6.37,11.82,13.63,15.11,21.65,3.27,8.01,4.87,16.81,4.88,26.19,0,5.54-.56,11.27-1.67,17.14-2.02,10.81-7.79,22.71-16.83,34.7-13.54,18-34.33,36.11-59.6,51.53-25.26,15.43-54.98,28.19-86.35,35.82m156.19-79.64c9.88-13.13,16.65-26.63,19.19-40.05,1.24-6.59,1.89-13.11,1.89-19.51,0-10.84-1.86-21.33-5.83-31.04-5.93-14.58-16.67-27.28-32.21-36.62-5.33-3.21-11.26-6.01-17.72-8.43,5.37-5.92,10.25-11.25,14.48-15.85,5.96-6.46,10.69-11.53,13.93-14.98,1.62-1.73,2.87-3.04,3.71-3.93,.84-.89,1.27-1.33,1.27-1.33,2.45-2.56,2.36-6.62-.2-9.07-2.56-2.45-6.62-2.36-9.07,.2-.03,.04-14.76,15.44-37.62,40.75-9.06-2.34-18.97-4.03-29.89-4.95-9.31-.77-18.59-1.14-27.81-1.14-66.79,.02-129.88,19.07-173.06,40.25-24.42,11.99-47.78,26.1-68.08,41.63-20.29,15.54-37.53,32.49-49.62,50.38-9.93,14.72-16.91,26.6-21.49,37.53-4.58,10.91-6.68,20.97-6.66,31.29,0,3.62,.25,7.27,.71,11,1.6,13.07,7.05,24,14.21,32.3,7.18,8.31,16.01,14.07,24.77,17.14l.12,.04,.12,.03c9.55,2.91,18.34,3.89,25.81,3.89,14.95,0,24.6-3.87,25.14-4.08,3.28-1.33,4.86-5.07,3.53-8.35-1.33-3.28-5.07-4.86-8.35-3.53-.5,.2-8.4,3.15-20.32,3.14-6.32,0-13.77-.82-21.92-3.29-6.52-2.28-13.58-6.83-19.19-13.37-5.65-6.57-9.91-15.05-11.2-25.49-.41-3.29-.61-6.4-.61-9.43,.02-8.63,1.63-16.65,5.67-26.34,4.04-9.67,10.59-20.93,20.29-35.31,11-16.31,27.28-32.45,46.78-47.37,19.5-14.92,42.19-28.64,65.94-40.3,41.48-20.39,103.09-38.96,167.4-38.94,8.88,0,17.8,.35,26.74,1.1,7.64,.64,14.67,1.67,21.19,3.03-6.29,7.04-13.03,14.64-20.14,22.76-19.8,22.62-53.39,65.66-87.42,109.87-23.19,30.13-46.55,60.76-65.74,85.68-13.98-1.1-25.08-4.82-37.31-11.43l-.04-.02-.03-.02c-6.71-3.56-10.1-7.32-11.99-10.57-1.87-3.27-2.29-6.22-2.3-8.38,0-1.06,.11-1.9,.2-2.43l.11-.54v-.06s0,0,0,0c1.01-3.35-.85-6.9-4.19-7.96-3.38-1.07-6.98,.8-8.05,4.17-.14,.46-.9,2.97-.9,6.81,0,3.9,.83,9.25,4,14.77,3.15,5.52,8.6,11.02,17.05,15.49,.01,0,.03,.01,.04,.02,0,0,.02,0,.03,.01,10.95,5.99,21.92,10,34.24,11.95-5.32,6.88-10.23,13.19-14.55,18.67-21.16,26.89-41.68,54.55-58.24,78.67-8.28,12.07-15.57,23.24-21.48,33.03-5.91,9.8-10.43,18.17-13.22,24.89-1.35,3.27,.2,7.02,3.47,8.38,3.27,1.36,7.02-.2,8.38-3.47,2.34-5.67,6.62-13.7,12.35-23.17,17.19-28.51,47.31-70.38,78.82-110.4,5.68-7.22,12.34-15.8,19.67-25.29,.94,.02,1.83,.08,2.79,.08,18.16-.01,39.77-3.51,69.16-10.41h.05c43.67-10.65,83.99-30.65,114.82-54.35,15.41-11.86,28.46-24.64,38.35-37.77"/>
</svg>